<svg width="534" height="534" viewBox="0 0 534 534" fill="none" xmlns="http://www.w3.org/2000/svg">
<path d="M267.086 0.333252C155.725 0.333252 123.156 0.448133 116.825 0.973306C93.9721 2.87295 79.7514 6.47121 64.2588 14.1847C52.3193 20.1134 42.9031 26.9858 33.6101 36.6194C16.6855 54.1881 6.42827 75.8022 2.71513 101.495C0.909849 113.967 0.384676 116.511 0.278001 180.221C0.236972 201.458 0.278001 229.407 0.278001 266.895C0.278001 378.166 0.401088 410.702 0.934467 417.021C2.78078 439.259 6.26825 453.25 13.6535 468.553C27.7675 497.848 54.7236 519.84 86.4802 528.046C97.476 530.877 109.621 532.436 125.212 533.174C131.817 533.461 199.146 533.667 266.516 533.667C333.886 533.667 401.256 533.585 407.697 533.256C425.75 532.407 436.233 531 447.824 528.005C463.57 523.967 478.245 516.54 490.823 506.243C503.402 495.946 513.581 483.028 520.65 468.389C527.892 453.455 531.564 438.93 533.226 417.854C533.587 413.258 533.739 339.993 533.739 266.826C533.739 193.646 533.574 120.516 533.213 115.92C531.531 94.5033 527.859 80.1021 520.384 64.8803C514.25 52.4197 507.439 43.1143 497.551 33.5997C479.908 16.7449 458.327 6.48762 432.606 2.77859C420.145 0.977409 417.663 0.444031 353.904 0.333252H267.086Z" fill="url(#paint0_radial_7710_17313)"/>
<path d="M267.086 0.333252C155.725 0.333252 123.156 0.448133 116.825 0.973306C93.9721 2.87295 79.7514 6.47121 64.2588 14.1847C52.3193 20.1134 42.9031 26.9858 33.6101 36.6194C16.6855 54.1881 6.42827 75.8022 2.71513 101.495C0.909849 113.967 0.384676 116.511 0.278001 180.221C0.236972 201.458 0.278001 229.407 0.278001 266.895C0.278001 378.166 0.401088 410.702 0.934467 417.021C2.78078 439.259 6.26825 453.25 13.6535 468.553C27.7675 497.848 54.7236 519.84 86.4802 528.046C97.476 530.877 109.621 532.436 125.212 533.174C131.817 533.461 199.146 533.667 266.516 533.667C333.886 533.667 401.256 533.585 407.697 533.256C425.75 532.407 436.233 531 447.824 528.005C463.57 523.967 478.245 516.54 490.823 506.243C503.402 495.946 513.581 483.028 520.65 468.389C527.892 453.455 531.564 438.93 533.226 417.854C533.587 413.258 533.739 339.993 533.739 266.826C533.739 193.646 533.574 120.516 533.213 115.92C531.531 94.5033 527.859 80.1021 520.384 64.8803C514.25 52.4197 507.439 43.1143 497.551 33.5997C479.908 16.7449 458.327 6.48762 432.606 2.77859C420.145 0.977409 417.663 0.444031 353.904 0.333252H267.086Z" fill="url(#paint1_radial_7710_17313)"/>
<path d="M266.964 70.0828C213.478 70.0828 206.766 70.3166 185.759 71.2726C164.793 72.2327 150.482 75.5519 137.96 80.4221C125.007 85.4523 114.02 92.181 103.073 103.132C92.1182 114.078 85.3894 125.066 80.3428 138.015C75.4604 150.541 72.137 164.856 71.1934 185.814C70.2579 206.82 70.0117 213.537 70.0117 267.023C70.0117 320.508 70.2497 327.2 71.2016 348.207C72.1658 369.173 75.485 383.484 80.3511 396.006C85.3853 408.959 92.1141 419.946 103.065 430.893C114.007 441.848 124.995 448.593 137.94 453.623C150.47 458.493 164.785 461.812 185.747 462.772C206.754 463.728 213.462 463.962 266.943 463.962C320.433 463.962 327.125 463.728 348.132 462.772C369.098 461.812 383.425 458.493 395.955 453.623C408.904 448.593 419.875 441.848 430.818 430.893C441.772 419.946 448.501 408.959 453.548 396.01C458.389 383.484 461.713 369.169 462.697 348.211C463.641 327.204 463.887 320.508 463.887 267.023C463.887 213.537 463.641 206.825 462.697 185.818C461.713 164.852 458.389 150.541 453.548 138.019C448.501 125.066 441.772 114.078 430.818 103.132C419.863 92.1769 408.908 85.4482 395.943 80.4221C383.388 75.5519 369.069 72.2327 348.103 71.2726C327.096 70.3166 320.408 70.0828 266.906 70.0828H266.964ZM249.297 105.573C254.54 105.565 260.391 105.573 266.964 105.573C319.547 105.573 325.779 105.762 346.544 106.705C365.745 107.583 376.167 110.792 383.109 113.487C392.3 117.057 398.852 121.324 405.741 128.217C412.634 135.11 416.901 141.674 420.478 150.865C423.174 157.799 426.387 168.22 427.26 187.422C428.204 208.183 428.409 214.419 428.409 266.977C428.409 319.536 428.204 325.772 427.26 346.533C426.382 365.734 423.174 376.156 420.478 383.09C416.909 392.28 412.634 398.824 405.741 405.713C398.848 412.606 392.304 416.873 383.109 420.443C376.175 423.151 365.745 426.351 346.544 427.229C325.783 428.173 319.547 428.378 266.964 428.378C214.377 428.378 208.144 428.173 187.384 427.229C168.182 426.343 157.761 423.134 150.814 420.439C141.624 416.869 135.059 412.602 128.166 405.709C121.273 398.816 117.006 392.268 113.429 383.073C110.733 376.139 107.521 365.718 106.647 346.516C105.703 325.756 105.514 319.519 105.514 266.928C105.514 214.337 105.703 208.133 106.647 187.373C107.525 168.171 110.733 157.75 113.429 150.808C116.998 141.617 121.273 135.052 128.166 128.159C135.059 121.267 141.624 117 150.814 113.422C157.757 110.714 168.182 107.514 187.384 106.632C205.551 105.811 212.592 105.565 249.297 105.524V105.573ZM372.089 138.273C367.414 138.273 362.845 139.659 358.958 142.257C355.071 144.854 352.042 148.545 350.254 152.864C348.465 157.183 347.998 161.935 348.911 166.519C349.823 171.104 352.075 175.315 355.381 178.62C358.687 181.924 362.898 184.175 367.483 185.086C372.068 185.997 376.82 185.527 381.138 183.737C385.456 181.947 389.147 178.917 391.742 175.03C394.338 171.142 395.723 166.572 395.721 161.898C395.721 148.85 385.136 138.265 372.089 138.265V138.273ZM266.964 165.886C211.111 165.886 165.827 211.17 165.827 267.023C165.827 322.875 211.111 368.139 266.964 368.139C322.817 368.139 368.088 322.875 368.088 267.023C368.088 211.17 322.817 165.886 266.964 165.886ZM266.964 201.376C303.217 201.376 332.61 230.765 332.61 267.023C332.61 303.276 303.217 332.669 266.964 332.669C230.706 332.669 201.317 303.276 201.317 267.023C201.317 230.765 230.706 201.376 266.964 201.376Z" fill="white"/>
<defs>
<radialGradient id="paint0_radial_7710_17313" cx="0" cy="0" r="1" gradientUnits="userSpaceOnUse" gradientTransform="translate(141.966 574.744) rotate(-90) scale(528.573 491.748)">
<stop stop-color="#FFDD55"/>
<stop offset="0.1" stop-color="#FFDD55"/>
<stop offset="0.5" stop-color="#FF543E"/>
<stop offset="1" stop-color="#C837AB"/>
</radialGradient>
<radialGradient id="paint1_radial_7710_17313" cx="0" cy="0" r="1" gradientUnits="userSpaceOnUse" gradientTransform="translate(-89.1007 38.7537) rotate(78.6776) scale(236.277 974.188)">
<stop stop-color="#3771C8"/>
<stop offset="0.128" stop-color="#3771C8"/>
<stop offset="1" stop-color="#6600FF" stop-opacity="0"/>
</radialGradient>
</defs>
</svg>
