<svg fill="none" height="93" viewBox="0 0 92 93" width="92" xmlns="http://www.w3.org/2000/svg"><rect fill="#2787f5" height="91.56" rx="20" width="91.56" y=".803711"/><path clip-rule="evenodd" d="m72.4961 33.4006c.387-1.2104.0001-2.0998-1.8415-2.0998h-6.0894c-1.5484 0-2.2622.7683-2.6493 1.6155 0 0-3.0967 7.0806-7.4836 11.68-1.4193 1.3313-2.0645 1.7549-2.8386 1.7549-.3871 0-.9474-.4236-.9474-1.6339v-11.3167c0-1.4525-.4493-2.0998-1.7397-2.0998h-9.5692c-.9675 0-1.5495.6741-1.5495 1.313 0 1.3769 2.1934 1.6944 2.4195 5.5676v8.412c0 1.8443-.3551 2.1787-1.1293 2.1787-2.0643 0-7.0859-7.1123-10.0641-15.2506-.5837-1.5818-1.1691-2.2207-2.7254-2.2207h-6.0894c-1.7399 0-2.0879.7683-2.0879 1.6155 0 1.513 2.0645 9.0172 9.6125 18.9421 5.032 6.7779 12.1217 10.452 18.573 10.452 3.8708 0 4.3496-.816 4.3496-2.2216v-5.1227c0-1.6321.3667-1.9579 1.5925-1.9579.9031 0 2.4515.4237 6.0643 3.6916 4.1288 3.8731 4.8095 5.6106 7.1319 5.6106h6.0895c1.7398 0 2.6097-.816 2.1079-2.4264-.5492-1.605-2.5205-3.9337-5.1362-6.6942-1.4194-1.5735-3.5483-3.2679-4.1935-4.1153-.9031-1.0892-.6451-1.5734 0-2.5416 0 0 7.4192-9.8039 8.1933-13.1323z" fill="#fff" fill-rule="evenodd"/></svg>